<svg width="284" height="121" viewBox="0 0 284 121" fill="none" xmlns="http://www.w3.org/2000/svg">
<path d="M284 0H272.542V121H284V0Z" fill="#A03C50"/>
<path d="M36.2536 5.5502L0 5.30933V30.6414H4.20926L12.4978 10.2774L26.3454 10.1469V87.1469L14.3475 88.3914L14.5974 92.4863L35.8737 92.2354L56.91 92.4863L57.2799 88.3914L45.402 87.1469V10.1469L59.1396 10.2774L67.5481 30.6414H71.6274V5.30933L36.2536 5.5502Z" fill="#282828"/>
<path d="M93.3536 22.813L91.2539 16.1086V87.1469L100.162 88.3814L100.042 92.4863L88.2845 92.2354L76.7765 92.4863L76.4066 88.3814L85.195 87.1469V10.7692L76.5365 9.27374L76.9065 5.30933L87.0447 5.5502L103.622 5.30933L142.595 60.0685L144.825 66.1606V10.5183L135.916 9.27374L136.036 5.30933L147.664 5.5502L159.172 5.30933L159.542 9.27374L150.883 10.5183V92.8577H141.605L93.3536 22.813Z" fill="#282828"/>
<path d="M165.561 88.3814L174.349 87.1469V10.5183L165.561 9.27374L165.931 5.30933L183.748 5.5502L201.065 5.30933L201.435 9.27374L193.396 10.5183V44.6725H225.81V10.5183L217.652 9.27374L217.892 5.30933L235.339 5.5502L253.025 5.30933L253.395 9.27374L244.867 10.5183V87.1469L253.395 88.3814L253.025 92.4863L235.339 92.2354L217.892 92.4863L217.652 88.3814L225.81 87.1469V49.8914H193.396V87.1469L201.435 88.3814L201.065 92.4863L183.748 92.2354L165.931 92.4863L165.561 88.3814Z" fill="#282828"/>
</svg>
